# xmcd
#
# Track frame offsets:
#	150
#	28800
#	50972
#	72400
#	103240
#	127475
#	145380
#	154570
#	166062
#	176992
#	193602
#	209295
#	219132
#	228925
#	250380
#	267322
#	277162
#
# Disc length: 3999 seconds
#
# Revision: 1
# Processed by: cddbd v1.5.2PL0 Copyright (c) Steve Scherf et al.
# Submitted via: audiograbber 1.83.01
#
DISCID=130f9d11
DTITLE=Zagrebaski ansambl za duhovnu glazbu - Dragulji duhovne glazbe
DYEAR=1900
DGENRE=
TTITLE0=Ave Maria - Jakov Gotovac
TTITLE1=Panis Angelicus - Cesar Franck
TTITLE2=Crisantemi - Giacomo Puccini
TTITLE3=Pieta, signore - Alessandro Stradella
TTITLE4=Agnus Dei - Ivana Lang
TTITLE5=Stabat mater - G.B. Pergolesi
TTITLE6=Stabat mater - G.B. Pergolesi
TTITLE7=Stabat mater - G.B. Pergolesi
TTITLE8=Stabat mater - G.B. Pergolesi
TTITLE9=Stabat mater - G.B. Pergolesi
TTITLE10=Stabat mater - G.B. Pergolesi
TTITLE11=Stabat mater - G.B. Pergolesi
TTITLE12=Stabat mater - G.B. Pergolesi
TTITLE13=Stabat mater - G.B. Pergolesi
TTITLE14=Stabat mater - G.B. Pergolesi
TTITLE15=Stabat mater - G.B. Pergolesi
TTITLE16=Stabat mater - G.B. Pergolesi
EXTD=
EXTT0=
EXTT1=
EXTT2=
EXTT3=
EXTT4=
EXTT5=
EXTT6=
EXTT7=
EXTT8=
EXTT9=
EXTT10=
EXTT11=
EXTT12=
EXTT13=
EXTT14=
EXTT15=
EXTT16=
PLAYORDER=
